#!OML:ASF F:\twosubjects\two\Thursday\Session 1\justin.ASF
:FULLY-SPECIFIED
:DEGREES
270
root 21.5815 18.5998 5.73146 -141.882 -88.4765 155.296
lowerback 8.91053 0.948447 0.120397
upperback 4.61768 1.11611 2.72487
thorax -0.263477 0.453484 2.64643
lowerneck -22.9368 -3.14137 -12.3506
upperneck 30.3229 -0.855219 2.02041
head 14.4038 -1.69188 2.71254
rclavicle -4.37326e-015 8.74653e-015
rhumerus 18.3816 18.0508 -64.7779
rradius 70.5541
rwrist 3.84799
rhand -38.0807 49.5549
rfingers 7.12502
rthumb -11.1171 19.8693
lclavicle -4.37326e-015 8.74653e-015
lhumerus 33.2373 -28.5839 63.2925
lradius 52.3762
lwrist -30.6189
lhand -36.8672 47.8481
lfingers 7.12502
lthumb -9.94653 77.5931
rfemur -26.9848 -3.05841 14.6812
rtibia 23.8335
rfoot -8.64493 -6.77915
rtoes -16.2752
lfemur -15.8112 9.85896 -23.8154
ltibia 12.0405
lfoot -7.58899 -0.866194
ltoes -2.84242
271
root 21.5791 18.5945 5.719 -139.732 -88.4837 153.147
lowerback 8.98789 0.876358 0.0920647
upperback 4.70036 1.01229 2.81183
thorax -0.217265 0.396811 2.76204
lowerneck -22.9805 -3.0748 -12.4585
upperneck 30.2645 -0.753801 2.16419
head 14.3782 -1.63678 2.80845
rclavicle -2.78299e-015 -1.51076e-014
rhumerus 17.7891 17.8726 -65.2509
rradius 70.5955
rwrist 6.07427
rhand -36.8742 49.1936
rfingers 7.12502
rthumb -9.95327 19.4489
lclavicle -2.78299e-015 -1.51076e-014
lhumerus 32.8882 -28.6323 62.6804
lradius 53.1357
lwrist -30.9787
lhand -37.0234 48.0179
lfingers 7.12502
lthumb -10.0972 77.7556
rfemur -26.9872 -2.92812 14.6591
rtibia 23.9779
rfoot -8.9791 -7.02732
rtoes -16.1991
lfemur -15.6468 9.69643 -23.7821
ltibia 11.7516
lfoot -7.52157 -0.873537
ltoes -2.904
272
root 21.5751 18.5943 5.70792 -144.178 -88.4019 157.644
lowerback 9.06699 0.961722 0.339568
upperback 4.74058 1.1404 2.84264
thorax -0.220727 0.462235 2.64219
lowerneck -23.0372 -3.17116 -12.5805
upperneck 30.3079 -0.886246 2.31294
head 14.4233 -1.68696 2.86631
rclavicle 7.55382e-015 3.02153e-014
rhumerus 17.1479 17.8562 -65.3052
rradius 70.791
rwrist 7.36312
rhand -36.8273 47.3101
rfingers 7.12502
rthumb -9.90801 17.5632
lclavicle 7.55382e-015 3.02153e-014
lhumerus 32.6748 -29.057 62.0085
lradius 54.002
lwrist -31.4536
lhand -36.8878 48.5779
lfingers 7.12502
lthumb -9.96638 78.3219
rfemur -27.0475 -2.84065 14.8356
rtibia 24.037
rfoot -8.98739 -7.15836
rtoes -17.6941
lfemur -15.687 9.8661 -23.7
ltibia 11.771
lfoot -7.40626 -0.969892
ltoes -6.39761
273
root 21.57 18.5986 5.69311 -149.958 -88.3186 163.514
lowerback 9.05753 1.06906 0.557292
upperback 4.82868 1.2908 2.88903
thorax -0.126763 0.536919 2.55477
lowerneck -23.2231 -3.1941 -12.5514
upperneck 30.421 -0.929431 2.40392
head 14.5164 -1.69257 2.8934
rclavicle 1.86858e-014 1.90833e-014
rhumerus 16.5654 18.2694 -65.0077
rradius 71.3285
rwrist 8.35721
rhand -37.9097 45.8164
rfingers 7.12502
rthumb -10.9522 16.1221
lclavicle 1.86858e-014 1.90833e-014
lhumerus 32.5758 -29.3938 61.4441
lradius 54.7414
lwrist -32.0353
lhand -36.5705 48.8797
lfingers 7.12502
lthumb -9.66027 78.6382
rfemur -27.1476 -2.96439 15.0968
rtibia 23.9952
rfoot -8.84372 -6.92306
rtoes -18.1297
lfemur -15.9009 10.0543 -23.5689
ltibia 12.0499
lfoot -7.48986 -0.953505
ltoes -9.69671
274
root 21.57 18.5904 5.67392 -151.847 -88.3481 165.454
lowerback 9.16362 1.07233 0.635953
upperback 4.91865 1.29457 2.92442
thorax -0.0906001 0.536343 2.54636
lowerneck -23.283 -3.14866 -12.2255
upperneck 30.2889 -0.938501 2.29226
head 14.465 -1.66506 2.78958
rclavicle 4.37326e-015 -1.03368e-014
rhumerus 16.1413 18.7252 -64.9224
rradius 71.7602
rwrist 9.77044
rhand -37.8271 46.7105
rfingers 7.12502
rthumb -10.8725 17.0119
lclavicle 4.37326e-015 -1.03368e-014
lhumerus 32.3892 -29.5646 60.766
lradius 55.4774
lwrist -32.757
lhand -36.4566 48.7618
lfingers 7.12502
lthumb -9.55033 78.5254
rfemur -27.1977 -3.04919 15.2424
rtibia 23.9646
rfoot -8.89711 -6.79738
rtoes -17.2331
lfemur -16.0809 10.0121 -23.4374
ltibia 12.2832
lfoot -7.54106 -0.870445
ltoes -10.1952
275
root 21.5714 18.5817 5.65712 -151.055 -88.3327 164.706
lowerback 9.27639 1.03415 0.574402
upperback 4.9809 1.2346 3.03042
thorax -0.0886837 0.501003 2.69586
lowerneck -23.1664 -3.08717 -12.0416
upperneck 30.0423 -0.847933 2.0302
head 14.321 -1.63057 2.664
rclavicle 3.57812e-015 7.95139e-015
rhumerus 16.0063 19.3373 -64.7537
rradius 71.8873
rwrist 11.395
rhand -37.6908 47.5794
rfingers 7.12502
rthumb -10.741 17.874
lclavicle 3.57812e-015 7.95139e-015
lhumerus 31.9357 -29.5337 60.3086
lradius 56.1936
lwrist -33.7441
lhand -36.4912 48.6328
lfingers 7.12502
lthumb -9.58379 78.3948
rfemur -27.2172 -2.90975 15.2619
rtibia 23.9311
rfoot -8.86821 -7.08818
rtoes -16.891
lfemur -16.2182 9.78192 -23.3525
ltibia 12.4705
lfoot -7.49794 -0.681649
ltoes -8.92001
